<?xml version="1.0" encoding="utf-8"?>
<!-- Uploaded to: SVG Repo, www.svgrepo.com, Generator: SVG Repo Mixer Tools -->
<svg width="800px" height="800px" viewBox="0 0 1024 1024" class="icon"  version="1.1" xmlns="http://www.w3.org/2000/svg"><path d="M800 768h-170.666667a32 32 0 0 1-32-32v-298.666667a32 32 0 0 1 32-32h256a32 32 0 0 1 32 32v213.333334c0 64.704-52.650667 117.333333-117.333333 117.333333zM661.333333 704h138.666667c29.418667 0 53.333333-23.936 53.333333-53.333333V469.333333h-192v234.666667z" fill="#D1B43D" /><path d="M128 384v533.333333a85.333333 85.333333 0 0 0 85.333333 85.333334h469.333334a85.333333 85.333333 0 0 0 85.333333-85.333334V384H128z" fill="#EFD358" /><path d="M448 832a21.333333 21.333333 0 0 1-21.333333-21.333333V533.333333a21.333333 21.333333 0 1 1 42.666666 0v277.333334a21.333333 21.333333 0 0 1-21.333333 21.333333zM298.666667 832a21.333333 21.333333 0 0 1-21.333334-21.333333V533.333333a21.333333 21.333333 0 1 1 42.666667 0v277.333334a21.333333 21.333333 0 0 1-21.333333 21.333333zM597.333333 832a21.333333 21.333333 0 0 1-21.333333-21.333333V533.333333a21.333333 21.333333 0 1 1 42.666667 0v277.333334a21.333333 21.333333 0 0 1-21.333334 21.333333z" fill="#D1B43D" /><path d="M704 213.333333h-8.384C667.157333 102.976 567.253333 21.333333 448 21.333333S228.842667 102.976 200.384 213.333333H192a106.666667 106.666667 0 0 0 0 213.333334h512a106.666667 106.666667 0 0 0 0-213.333334zM256 426.666667v192a42.666667 42.666667 0 1 0 85.333333 0v-192h-85.333333z" fill="#E6E6E6" /></svg>